# xmcd CD database file
#
# Track frame offsets:
#	150
#	11052
#	22221
#	34937
#	45747
#	57809
#	67770
#	77444
#	88594
#	96845
#	104752
#	116158
#	127224
#	138675
#	153620
#	164040
#
# Disc length: 2361 seconds
#
# Revision: 0
# Processed by: cddbd v1.5.2PL0 Copyright (c) Steve Scherf et al.
# Submitted via: CDex 1.70beta2
#
DISCID=e6093710
DTITLE=Various Artist - Country Legends - Cowboy Boots
DYEAR=1900
DGENRE=Country
TTITLE0=Cry, Cry,Cry - Johnny Cash
TTITLE1=Happiyness of Having You - Charley Pride
TTITLE2=Granada - Frankie Laine
TTITLE3=Heaven's Just A Sin Away - Lynn Anderson
TTITLE4=If It's Alright With You - Tina Turner
TTITLE5=A Fallen Star - Jimmie C Newman
TTITLE6=It's All Over - Anne Murray
TTITLE7=Hungry For Love - Patsy Cline
TTITLE8=Wind Up Doll - Jim Reeves
TTITLE9=Your Cheaten' Heart - Jerry Lee Lewis
TTITLE10=Slowly - Webb Pierce
TTITLE11=Cowboy Boots - Dave Dudley
TTITLE12=Chintnig Is - Barbara Fairchild
TTITLE13=Face Of A Fighter - Willie Nelson
TTITLE14=If Yon Ain't Lovin' - Faron Young
TTITLE15=It Coulda Been Me - Billie Jo Spears
EXTD=
EXTT0=
EXTT1=
EXTT2=
EXTT3=
EXTT4=
EXTT5=
EXTT6=
EXTT7=
EXTT8=
EXTT9=
EXTT10=
EXTT11=
EXTT12=
EXTT13=
EXTT14=
EXTT15=
PLAYORDER=
